Coordinates
version=1
nRows=6
nColumns=36
inDegrees=yes

Units are S.I. units (second, meters, Newtons, ...)
If the header above contains a line with 'inDegrees', this indicates whether rotational values are in degrees (yes) or radians (no).

endheader
time	pelvis_tilt	pelvis_list	pelvis_rotation	pelvis_tx	pelvis_ty	pelvis_tz	hip_flexion_r	hip_adduction_r	hip_rotation_r	knee_angle_r	knee_angle_r_beta	ankle_angle_r	subtalar_angle_r	mtp_angle_r	hip_flexion_l	hip_adduction_l	hip_rotation_l	knee_angle_l	knee_angle_l_beta	ankle_angle_l	subtalar_angle_l	mtp_angle_l	lumbar_extension	lumbar_bending	lumbar_rotation	arm_flex_r	arm_add_r	arm_rot_r	elbow_flex_r	pro_sup_r	arm_flex_l	arm_add_l	arm_rot_l	elbow_flex_l	pro_sup_l
      3.00000000	     -9.77805338	      3.13664310	      6.71171877	      0.12979002	      1.23434085	      0.00167139	     49.48814954	     -4.61623311	     10.72715257	     44.04545949	      0.76873829	      4.22684557	    -24.77281813	     -7.49999987	     21.42683323	      8.31627874	      0.51943758	     34.38356677	      0.60010645	     18.20997369	    -24.30822639	     -7.49999987	     -5.60920658	     -9.59261771	     -7.47730839	      2.97866544	     -5.11948490	    -19.05561140	     53.92620665	     85.06811603	     22.23251228	    -24.53670686	    -11.92504515	     36.86216659	     85.10894220
      3.01666670	     -9.20002358	      3.11318927	      6.75810880	      0.14510364	      1.23620552	      0.00130766	     49.72153496	     -5.08766479	     10.01577948	     41.54734695	      0.72513800	      0.58904169	    -25.08030759	     -7.49999987	     17.62306474	      8.04302646	     -0.67839205	     33.19006739	      0.57927595	     17.17256169	    -23.86677626	     -7.49999987	     -5.85125785	     -9.70405244	     -8.11952152	      3.23739632	     -7.34674482	    -24.59812769	     65.34939924	     94.03232566	     28.52310677	    -28.39423123	    -17.26077373	     39.65778739	     85.85822649
      3.03333330	     -8.30216019	      1.99239805	      6.61367293	      0.15812985	      1.24018430	      0.00291685	     49.33942856	     -4.36839790	      9.11481079	     39.28154063	      0.68559222	     -3.28688098	    -24.42147124	     -7.49999987	     13.49996657	      6.59465090	     -1.74762112	     32.32697022	      0.56421207	     12.77486385	    -23.18185894	     -7.49999987	     -5.88024082	     -8.24322839	     -9.32802720	      3.77236971	    -11.32114202	    -27.33808648	     75.79390394	     91.79832039	     31.98509705	    -33.43186290	    -21.57657302	     41.46517114	     83.03466105
      3.05000000	     -7.03359100	      0.22116884	      5.93586499	      0.17473152	      1.24940316	      0.00244772	     48.02724541	     -3.02346973	      7.41931078	     35.04294452	      0.61161476	     -7.85873416	    -24.27972496	     -7.49999987	      9.32920746	      4.23396777	     -2.51343212	     30.92904837	      0.53981373	      8.59430112	    -20.66469291	     -7.49999987	     -6.51065727	     -6.15451963	     -8.47157207	      4.25251874	    -15.70578857	    -32.03312082	     80.37882776	    100.79053270	     35.02722363	    -35.91585493	    -25.02337617	     42.18276501	     86.28912761
      3.06666670	     -6.07974160	     -1.25503370	      5.83521578	      0.19074516	      1.26023816	      0.00107967	     46.65388862	     -2.32475432	      5.62653554	     31.42379354	      0.54844866	    -12.49908584	    -24.09577486	     -7.49999987	      6.56403550	      2.27486358	     -3.98654357	     29.48314715	      0.51457799	     -0.49844496	    -19.80531494	     -7.49999987	     -6.98352456	     -4.04498060	     -9.23630009	      7.01777937	    -19.59393914	    -32.25048224	     81.24672407	     99.36675650	     35.21546998	    -39.67364203	    -24.84896848	     40.87001540	     85.66911203
      3.08333330	     -5.59831701	     -2.00463468	      5.13453687	      0.20979740	      1.26541759	      0.00030761	     45.82800305	     -2.02306183	      3.31693337	     27.41503550	      0.47848263	    -18.80771903	    -24.26958254	     -7.49999987	      5.04244852	      1.13998242	     -5.33141279	     27.50151965	      0.47999207	     -3.32681787	    -16.15364174	     -7.49999987	     -6.70176822	     -2.53917688	     -9.44481439	      9.36409881	    -23.34621202	    -32.90094032	     80.50785536	    100.05791342	     33.30805692	    -44.01461023	    -23.33871302	     39.39657178	     87.83082263
